<?xml version="1.0" encoding="utf-8"?>
<!-- Generator: Adobe Illustrator 17.0.0, SVG Export Plug-In . SVG Version: 6.00 Build 0)  -->
<!DOCTYPE svg PUBLIC "-//W3C//DTD SVG 1.1//EN" "http://www.w3.org/Graphics/SVG/1.1/DTD/svg11.dtd">
<svg version="1.1" id="Layer_3" xmlns="http://www.w3.org/2000/svg" xmlns:xlink="http://www.w3.org/1999/xlink" x="0px" y="0px"
	 width="595.28px" height="841.89px" viewBox="0 0 595.28 841.89" enable-background="new 0 0 595.28 841.89" xml:space="preserve">
<g>
	<circle fill="#60ADE0" cx="297.64" cy="468.381" r="194.512"/>
	<path fill="#E5E5E5" d="M479.363,399.087l1.744-17.44c-4.883-4.883-12.789-4.883-17.672,0l-7.557,7.557l-0.116-0.116
		c-4.418-4.418-11.51-4.418-15.928,0l-3.837,3.837c-4.883-3.139-11.394-2.674-15.696,1.628l-69.759,69.759l0,0l-17.672,17.672
		L264.737,550l-8.371-8.371c-1.628-1.628-4.186-1.628-5.813,0c-1.628,1.628-1.628,4.186,0,5.813l23.486,23.486l-38.019,38.135
		l11.975,11.975l-29.648-29.648c-1.628-1.628-4.186-1.628-5.813,0c-1.628,1.628-1.628,4.186,0,5.813l59.528,59.528
		c1.628,1.628,4.186,1.628,5.813,0s1.628-4.186,0-5.813l-18.021-18.021l38.135-38.135l23.834,23.834
		c1.628,1.628,4.186,1.628,5.813,0c1.628-1.628,1.628-4.186,0-5.813l-8.72-8.72l68.248-68.015l19.649-19.649l0,0l67.783-67.783
		c4.302-4.302,4.767-10.813,1.628-15.696l3.837-3.837c4.418-4.418,4.418-11.394,0.116-15.812l3.139-3.139
		C482.619,408.156,481.689,405.482,479.363,399.087z"/>
	<path fill="#E0CAA9" d="M273.341,640.687c1.628,1.628,1.628,4.186,0,5.813l0,0c-1.628,1.628-4.186,1.628-5.813,0l-59.528-59.528
		c-1.628-1.628-1.628-4.186,0-5.813l0,0c1.628-1.628,4.186-1.628,5.813,0L273.341,640.687z"/>
	<path fill="#E0CAA9" d="M323.102,602.668c1.628,1.628,1.628,4.186,0,5.813l0,0c-1.628,1.628-4.186,1.628-5.813,0l-71.271-71.271
		c-1.628-1.628-1.628-4.186,0-5.813l0,0c1.628-1.628,4.186-1.628,5.813,0L323.102,602.668z"/>
	
		<rect x="235.496" y="574.683" transform="matrix(0.7071 -0.7071 0.7071 0.7071 -341.4485 358.869)" fill="#FFFFFF" width="53.947" height="33.833"/>
	
		<rect x="273.167" y="515.814" transform="matrix(0.7071 -0.7071 0.7071 0.7071 -282.5737 383.2681)" fill="#FFFFFF" width="96.383" height="33.833"/>
	
		<rect x="292.635" y="541.574" transform="matrix(-0.7071 0.7071 -0.7071 -0.7071 972.3419 701.7841)" fill="#F1ECD9" width="96.383" height="21.393"/>
	
		<rect x="253.643" y="502.449" transform="matrix(-0.7071 0.7071 -0.7071 -0.7071 878.1132 662.564)" fill="#F4EFE0" width="96.383" height="21.393"/>
	<path fill="#62B446" d="M482.967,377.81c4.883,4.883,4.883,12.789,0,17.672l-9.418,9.418l-24.183-24.183l9.418-9.418
		c4.883-4.883,12.789-4.883,17.672,0L482.967,377.81z"/>
	<path fill="#010101" d="M382.514,525.7l19.649-19.649c2.209-2.209,2.209-5.813,0-8.139l-46.041-46.041
		c-2.209-2.209-5.813-2.209-8.139,0l-19.649,19.649L382.514,525.7z"/>
	<path fill="#42803C" d="M475.41,402.924c4.418,4.418,4.418,11.51,0,15.928l-5.813,5.813l-40.112-40.112l5.813-5.813
		c4.418-4.418,11.51-4.418,15.928,0L475.41,402.924z"/>
	<path fill="#62B446" d="M400.186,508.144l69.759-69.759c4.883-4.883,4.883-12.789,0-17.672l-36.507-36.507
		c-4.883-4.883-12.789-4.883-17.672,0l-69.759,69.759L400.186,508.144z"/>
	<polygon fill="#E0CAA9" points="538.426,319.329 481.456,376.183 477.852,372.578 538.31,312.237 	"/>
	<circle fill="#FFFFFF" cx="397.977" cy="461.057" r="11.859"/>
	<circle fill="#FFFFFF" cx="409.139" cy="421.061" r="12.324"/>
	<circle fill="#FFFFFF" cx="444.135" cy="428.851" r="7.208"/>
	<g>
		<polygon fill="#E5E5E5" points="233.113,390.251 252.413,409.435 171.027,490.821 122.777,539.071 137.542,578.834 
			143.588,587.205 166.609,583.019 214.975,534.769 258.575,491.053 296.245,453.383 315.312,472.451 342.17,445.593 
			259.97,363.394 		"/>
		<path fill="#E5E5E5" d="M389.257,360.371c10.696-10.696,10.696-28.136,0-38.833l-5.116-5.116
			c-10.696-10.696-28.136-10.696-38.833,0l-47.32,47.32l-4.302,4.302l-16.277-16.277c-1.628-1.628-4.302-1.628-6.046,0l-8.022,8.022
			l82.2,82.2l8.022-8.022c1.628-1.628,1.628-4.302,0-6.046l-16.045-16.045l4.302-4.302L389.257,360.371z"/>
	</g>
	
		<rect x="172.414" y="432.129" transform="matrix(-0.7071 0.7071 -0.7071 -0.7071 720.0866 628.074)" fill="#E0CAA9" width="115.102" height="62.085"/>
	<g>
		<g>
			<defs>
				<circle id="SVGID_1_" cx="297.64" cy="468.381" r="194.512"/>
			</defs>
			<clipPath id="SVGID_2_">
				<use xlink:href="#SVGID_1_"  overflow="visible"/>
			</clipPath>
			<polygon clip-path="url(#SVGID_2_)" fill="#CC9900" points="254.971,482.101 163.004,574.067 136.263,578.95 113.94,556.511 
				119.056,530.118 167.306,481.868 			"/>
		</g>
	</g>
	<path opacity="0.5" fill="#F8FCFA" enable-background="new    " d="M251.483,418.038c3.488,3.488,3.488,9.185,0,12.789
		L144.053,538.257c-3.488,3.488-9.185,3.488-12.789,0l0,0c-3.488-3.488-3.488-9.185,0-12.789l107.429-107.429
		C242.298,414.55,247.995,414.55,251.483,418.038L251.483,418.038z"/>
	<circle fill="#F8FCFA" cx="140.914" cy="567.788" r="6.511"/>
	<circle fill="#F8FCFA" cx="177.77" cy="526.747" r="6.743"/>
	<circle fill="#F8FCFA" cx="188.118" cy="489.774" r="10.115"/>
	
		<rect x="264.986" y="350.865" transform="matrix(-0.7071 0.7071 -0.7071 -0.7071 773.9156 497.4282)" fill="#010101" width="37.902" height="116.265"/>
	<path fill="#8A7F8D" d="M257.18,370.137c1.628,1.628,1.628,4.302,0,5.93l-16.393,16.393l-5.93-5.93l16.393-16.393
		C252.878,368.509,255.552,368.509,257.18,370.137L257.18,370.137z"/>
	<path fill="#8A7F8D" d="M270.318,383.275c1.628,1.628,1.628,4.302,0,5.93l-16.393,16.393l-5.93-5.93l16.393-16.393
		C266.016,381.647,268.574,381.647,270.318,383.275L270.318,383.275z"/>
	<path fill="#8A7F8D" d="M283.223,396.18c1.628,1.628,1.628,4.302,0,5.93l-16.393,16.393l-5.93-5.93l16.393-16.393
		C278.921,394.553,281.595,394.553,283.223,396.18L283.223,396.18z"/>
	<path fill="#8A7F8D" d="M296.361,409.318c1.628,1.628,1.628,4.302,0,5.93l-16.393,16.393l-5.93-5.93l16.393-16.393
		C292.059,407.691,294.733,407.691,296.361,409.318L296.361,409.318z"/>
	<path fill="#8A7F8D" d="M309.383,422.34c1.628,1.628,1.628,4.302,0,5.93l-16.393,16.393l-5.93-5.93l16.393-16.393
		C305.081,420.712,307.755,420.712,309.383,422.34L309.383,422.34z"/>
	<path fill="#8A7F8D" d="M322.405,435.362c1.628,1.628,1.628,4.302,0,5.93l-16.393,16.393l-5.93-5.93l16.393-16.393
		C318.103,433.734,320.777,433.734,322.405,435.362L322.405,435.362z"/>
	
		<rect x="311.204" y="347.825" transform="matrix(-0.7071 0.7071 -0.7071 -0.7071 804.3194 424.5757)" fill="#2F294C" width="6.046" height="62.085"/>
	<path fill="#595074" d="M385.653,312.585c10.696,10.696,10.696,28.136,0,38.833l-47.32,47.32l-43.948-43.948l47.32-47.32
		c10.696-10.696,28.136-10.696,38.833,0L385.653,312.585z"/>
	<path opacity="0.5" fill="#FFFFFF" enable-background="new    " d="M358.214,311.307c3.604,3.604,3.604,9.418,0,12.905
		L311.127,371.3l-12.905-12.905l47.088-47.088C348.797,307.819,354.61,307.819,358.214,311.307L358.214,311.307z"/>
	<path fill="#010101" d="M342.17,433.037l8.022-8.022c1.628-1.628,1.628-4.302,0-6.046l-76.154-76.154
		c-1.628-1.628-4.302-1.628-6.046,0l-8.022,8.022L342.17,433.037z"/>
</g>
</svg>
