<?xml version="1.0" ?><!DOCTYPE svg  PUBLIC '-//W3C//DTD SVG 1.1//EN'  'http://www.w3.org/Graphics/SVG/1.1/DTD/svg11.dtd'><svg enable-background="new 0 0 512 512" id="Layer_12" version="1.1" viewBox="0 0 512 512" xml:space="preserve" xmlns="http://www.w3.org/2000/svg" xmlns:xlink="http://www.w3.org/1999/xlink"><g><circle cx="256" cy="296.8" fill="#60ADE0" r="167.3"/><circle cx="236.9" cy="352" fill="#EFEEEE" r="100.3"/><path d="M264.7,333.5c0,0-36.9,4-61.1-1.6c-24.2-5.6-28.3-9.4-35.7-7.9c-7.3,1.5-10.5,9.1-10.5,9.1   s4.4,18.8,40.8,18.8S264.7,333.5,264.7,333.5z" fill="#D64928"/><rect fill="#EFEEEE" height="89.6" width="60.9" x="206.4" y="171"/><path d="M275.9,161.4c0,5.3-4.3,9.6-9.6,9.6h-60c-5.3,0-9.6-4.3-9.6-9.6l0,0c0-5.3,4.3-9.6,9.6-9.6h60   C271.6,151.8,275.9,156,275.9,161.4L275.9,161.4z" fill="#EFEEEE"/><g><path d="M242.1,203.1c4.6,0,8.4,3.8,8.4,8.4s-3.8,8.4-8.4,8.4s-8.4-3.8-8.4-8.4S237.4,203.1,242.1,203.1     M242.1,198.1c-7.4,0-13.4,6-13.4,13.4c0,7.4,6,13.4,13.4,13.4c7.4,0,13.4-6,13.4-13.4C255.5,204.1,249.5,198.1,242.1,198.1    L242.1,198.1z" fill="#F06A46"/></g><g><path d="M226,271.6c2.8,0,5.1,2.3,5.1,5.1c0,2.8-2.3,5.1-5.1,5.1c-2.8,0-5.1-2.3-5.1-5.1    C220.9,273.8,223.2,271.6,226,271.6 M226,267.6c-5,0-9.1,4.1-9.1,9.1c0,5,4.1,9.1,9.1,9.1c5,0,9.1-4.1,9.1-9.1    C235.1,271.6,231,267.6,226,267.6L226,267.6z" fill="#F06A46"/></g><circle cx="230.7" cy="140" fill="#F06A46" r="7.6"/><circle cx="261.2" cy="122.4" fill="#F06A46" r="10.8"/><path d="M284.4,323.9c-26.6,6.2-44.8,25-82.3,25c-27.9,0-40.2-10.4-44.7-15.8c-1.4,6-2.2,12.4-2.2,18.8   c0,45.1,36.6,81.7,81.7,81.7c45.1,0,81.7-36.6,81.7-81.7c0-10.7-2.1-21-5.8-30.3C306.9,320.8,297.8,320.8,284.4,323.9z" fill="#F06A46"/><path d="M293.5,391.1c0,3.8-3.1,7-7,7h-51.9c-3.8,0-7-3.1-7-7l0,0c0-3.8,3.1-7,7-7h51.9   C290.4,384.1,293.5,387.2,293.5,391.1L293.5,391.1z" fill="#FFFFFF" opacity="0.7"/><path d="M293.5,361.8c0,3.8-3.1,7-7,7h-51.9c-3.8,0-7-3.1-7-7l0,0c0-3.8,3.1-7,7-7h51.9   C290.4,354.9,293.5,358,293.5,361.8L293.5,361.8z" fill="#FFFFFF" opacity="0.7"/><path d="M293.5,332.6c0,3.8-3.1,7-7,7h-51.9c-3.8,0-7-3.1-7-7l0,0c0-3.8,3.1-7,7-7h51.9   C290.4,325.6,293.5,328.7,293.5,332.6L293.5,332.6z" fill="#FFFFFF" opacity="0.7"/><path d="M293.5,303.3c0,3.8-3.1,7-7,7h-51.9c-3.8,0-7-3.1-7-7l0,0c0-3.8,3.1-7,7-7h51.9   C290.4,296.3,293.5,299.5,293.5,303.3L293.5,303.3z" fill="#FFFFFF" opacity="0.7"/><polygon fill="#D1D2D3" points="218.6,171 267.4,189.7 267.2,171  "/><path d="M49.9,141.2c-4.8-39.7,23.5-75.8,63.2-80.6s75.8,23.5,80.6,63.2c2.4,19.6-3.4,38.4-14.5,52.9c0,0,0,0,0,0   c-9.4,13.3-2.4,35.7-2.4,35.7s-18.2-8.4-24.8-9.8c-6.6-1.4-14.9,4.2-35.1,2.1c0,0,0,0-0.1,0C82.8,202.5,54.1,176.3,49.9,141.2z" fill="#E5E5E5"/><circle cx="123" cy="125.4" fill="#F06A46" r="73.5"/><path d="M147.2,192.4c0,0,29.4,13.7,30.5,14.1c1.3,0.5,2,0.2,1.5-3.2s-3.7-30.9-3.7-30.9L147.2,192.4z" fill="#F06A46"/><polygon fill="#231F20" opacity="0.2" points="268.9,446.4 260.6,449.4 251.3,451.2 317.3,359.3 317.1,291.8 325.8,305 326,368.8     "/><path d="M163.7,357.4c5-51.1,46.3-90.2,94.6-91.7c-5.7-1-11.7-1.5-17.7-1.5   c-52.7,0-95.4,38.2-95.4,85.3c0,23.1,10.2,44,26.9,59.4C165.1,393.5,161.9,375.8,163.7,357.4z" fill="#FFFFFF" opacity="0.7"/><rect fill="#EFEEEE" height="100.6" width="48" x="323.4" y="259.1"/><path d="M378.3,251.7c0,4.1-3.3,7.4-7.4,7.4h-46.4c-4.1,0-7.4-3.3-7.4-7.4l0,0c0-4.1,3.3-7.4,7.4-7.4h46.4   C374.9,244.3,378.3,247.6,378.3,251.7L378.3,251.7z" fill="#EFEEEE"/><g><defs><circle cx="256" cy="296.8" id="SVGID_1_" r="167.3"/></defs><clipPath id="SVGID_2_"><use overflow="visible" xlink:href="#SVGID_1_"/></clipPath><path clip-path="url(#SVGID_2_)" d="M435.9,451.1l-64.5-91.4h-48l-63.7,91.4c-2,2.1-3.2,5-3.2,8.1    c0,6.5,5.3,11.8,11.8,11.8H426l0-0.1c0.4,0,0.9,0.1,1.3,0.1c6.5,0,11.8-5.3,11.8-11.8C439.1,456,437.8,453.2,435.9,451.1z" fill="#EFEEEE"/></g><g><path d="M343.5,383.4c2.8,0,5.1,2.3,5.1,5.1s-2.3,5.1-5.1,5.1c-2.8,0-5.1-2.3-5.1-5.1S340.7,383.4,343.5,383.4     M343.5,378.4c-5.6,0-10.1,4.5-10.1,10.1s4.5,10.1,10.1,10.1c5.6,0,10.1-4.5,10.1-10.1S349.1,378.4,343.5,378.4L343.5,378.4z" fill="#F06A46"/></g><g><path d="M339.9,313.1c1,0,1.8,0.8,1.8,1.8s-0.8,1.8-1.8,1.8s-1.8-0.8-1.8-1.8S338.9,313.1,339.9,313.1     M339.9,308.1c-3.7,0-6.8,3-6.8,6.8c0,3.7,3,6.8,6.8,6.8c3.7,0,6.8-3,6.8-6.8C346.7,311.2,343.6,308.1,339.9,308.1L339.9,308.1z" fill="#F06A46"/></g><path d="M360.6,413.8c0,0-9.5,2.5-23.5-0.8s-15.9-5.7-20.1-5.7c-4.2,0-7.2,5-7.2,5s5.9,10.6,23.8,10.6   C351.4,422.9,360.6,413.8,360.6,413.8z" fill="#D64928"/><g><path d="M358.4,203.6c3.4,0,6.2,2.8,6.2,6.2s-2.8,6.2-6.2,6.2s-6.2-2.8-6.2-6.2S355,203.6,358.4,203.6     M358.4,198.6c-6.2,0-11.2,5-11.2,11.2c0,6.2,5,11.2,11.2,11.2s11.2-5,11.2-11.2C369.6,203.6,364.6,198.6,358.4,198.6L358.4,198.6    z" fill="#F06A46"/></g><g><defs><circle cx="256" cy="296.8" id="SVGID_3_" r="167.3"/></defs><clipPath id="SVGID_4_"><use overflow="visible" xlink:href="#SVGID_3_"/></clipPath><path clip-path="url(#SVGID_4_)" d="M410.4,450.5L410.4,450.5L410.4,450.5c-0.3-0.6-0.7-1.1-1.1-1.6l-29.9-42.6    c0,0-8,1.1-18.3,5.3c-10.3,4.1-12.3,8.9-27,8.9s-24-8.9-24-8.9L284,448.9c-0.4,0.5-0.8,1-1.1,1.6l0,0l0,0c-0.5,1-0.8,2.2-0.8,3.4    c0,4.1,3.3,7.5,7.5,7.5h114.3c4.1,0,7.5-3.3,7.5-7.5C411.3,452.7,411,451.5,410.4,450.5z" fill="#F06A46"/></g><path d="M324.9,371.1c0,0-51.5,75.6-54.2,79.8c-2.7,4.3-9.4,13.4,2.4,13.4c11.9,0,50.4,0,50.4,0   s-20.2-5.5-20.2-31.2C303.2,407.3,324.9,371.1,324.9,371.1z" fill="#FFFFFF" opacity="0.7"/><path d="M400.3,413.8c0,2.7-2.2,5-5,5h-39.9c-2.7,0-5-2.2-5-5l0,0c0-2.7,2.2-5,5-5h39.9   C398.1,408.8,400.3,411.1,400.3,413.8L400.3,413.8z" fill="#FFFFFF" opacity="0.7"/><path d="M396.9,395.9h-41.5c-2.7,0-5-2.2-5-5l0,0c0-2.7,2.2-5,5-5h34.5L396.9,395.9z" fill="#FFFFFF" opacity="0.7"/><path d="M380.8,373h-25.4c-2.7,0-5-2.2-5-5l0,0c0-2.7,2.2-5,5-5h18.4L380.8,373z" fill="#FFFFFF" opacity="0.7"/><path d="M371.4,349.3h-16c-2.7,0-5-2.2-5-5l0,0c0-2.7,2.2-5,5-5h16V349.3z" fill="#FFFFFF" opacity="0.7"/><path d="M371.4,327.3h-16c-2.7,0-5-2.2-5-5l0,0c0-2.7,2.2-5,5-5h16V327.3z" fill="#FFFFFF" opacity="0.7"/><path d="M371.4,305.4h-16c-2.7,0-5-2.2-5-5l0,0c0-2.7,2.2-5,5-5h16V305.4z" fill="#FFFFFF" opacity="0.7"/><path d="M371.4,283.4h-16c-2.7,0-5-2.2-5-5l0,0c0-2.7,2.2-5,5-5h16V283.4z" fill="#FFFFFF" opacity="0.7"/><polygon fill="#D1D2D3" points="333.1,259.1 371.4,273.5 371.4,259.1  "/><rect fill="#FFFFFF" height="7.7" transform="matrix(0.8279 -0.5609 0.5609 0.8279 -49.8394 91.3989)" width="86.5" x="80.8" y="123.1"/><rect fill="#FFFFFF" height="7.7" transform="matrix(0.8279 -0.5609 0.5609 0.8279 -53.8754 76.2084)" width="43.2" x="75.6" y="122.1"/><rect fill="#FFFFFF" height="7.7" transform="matrix(0.8279 -0.5609 0.5609 0.8279 -55.7312 98.6301)" width="43.2" x="111.2" y="136.3"/><rect fill="#FFFFFF" height="7.7" transform="matrix(0.8279 -0.5609 0.5609 0.8279 -32.1829 93.72)" width="34.7" x="119.3" y="95.5"/></g></svg>