<?xml version="1.0" ?><!DOCTYPE svg  PUBLIC '-//W3C//DTD SVG 1.1//EN'  'http://www.w3.org/Graphics/SVG/1.1/DTD/svg11.dtd'><svg enable-background="new 0 0 512 512" id="Layer_3" version="1.1" viewBox="0 0 512 512" xml:space="preserve" xmlns="http://www.w3.org/2000/svg" xmlns:xlink="http://www.w3.org/1999/xlink"><g><circle cx="256" cy="296.8" fill="#60ADE0" r="167.3"/><path d="M412.3,237.2l1.5-15c-4.2-4.2-11-4.2-15.2,0l-6.5,6.5l-0.1-0.1c-3.8-3.8-9.9-3.8-13.7,0l-3.3,3.3   c-4.2-2.7-9.8-2.3-13.5,1.4l-60,60l0,0l-15.2,15.2L227.7,367l-7.2-7.2c-1.4-1.4-3.6-1.4-5,0c-1.4,1.4-1.4,3.6,0,5l20.2,20.2   L203,417.8l10.3,10.3l-25.5-25.5c-1.4-1.4-3.6-1.4-5,0c-1.4,1.4-1.4,3.6,0,5l51.2,51.2c1.4,1.4,3.6,1.4,5,0c1.4-1.4,1.4-3.6,0-5   l-15.5-15.5l32.8-32.8l20.5,20.5c1.4,1.4,3.6,1.4,5,0c1.4-1.4,1.4-3.6,0-5l-7.5-7.5L333,355l16.9-16.9c0,0,0,0,0,0l58.3-58.3   c3.7-3.7,4.1-9.3,1.4-13.5l3.3-3.3c3.8-3.8,3.8-9.8,0.1-13.6l2.7-2.7C415.1,245,414.3,242.7,412.3,237.2z" fill="#E5E5E5"/><path d="M235.1,445c1.4,1.4,1.4,3.6,0,5l0,0c-1.4,1.4-3.6,1.4-5,0l-51.2-51.2c-1.4-1.4-1.4-3.6,0-5l0,0   c1.4-1.4,3.6-1.4,5,0L235.1,445z" fill="#E0CAA9"/><path d="M277.9,412.3c1.4,1.4,1.4,3.6,0,5l0,0c-1.4,1.4-3.6,1.4-5,0l-61.3-61.3c-1.4-1.4-1.4-3.6,0-5l0,0   c1.4-1.4,3.6-1.4,5,0L277.9,412.3z" fill="#E0CAA9"/><rect fill="#FFFFFF" height="29.1" transform="matrix(-0.7071 0.7071 -0.7071 -0.7071 670.197 528.0424)" width="46.4" x="202.5" y="388.3"/><rect fill="#FFFFFF" height="29.1" transform="matrix(-0.7071 0.7071 -0.7071 -0.7071 720.8835 405.6743)" width="82.9" x="235" y="337.6"/><rect fill="#F1ECD9" height="18.4" transform="matrix(0.7071 -0.7071 0.7071 0.7071 -174.9907 315.3903)" width="82.9" x="251.7" y="359.7"/><rect fill="#F4EFE0" height="18.4" transform="matrix(0.7071 -0.7071 0.7071 0.7071 -161.0809 281.8092)" width="82.9" x="218.2" y="326.1"/><path d="M415.4,218.9c4.2,4.2,4.2,11,0,15.2l-8.1,8.1l-20.8-20.8l8.1-8.1c4.2-4.2,11-4.2,15.2,0L415.4,218.9z" fill="#62B446"/><path d="M329,346.1l16.9-16.9c1.9-1.9,1.9-5,0-7l-39.6-39.6c-1.9-1.9-5-1.9-7,0l-16.9,16.9L329,346.1z" fill="#010101"/><path d="M408.9,240.5c3.8,3.8,3.8,9.9,0,13.7l-5,5l-34.5-34.5l5-5c3.8-3.8,9.9-3.8,13.7,0L408.9,240.5z" fill="#42803C"/><path d="M344.2,331l60-60c4.2-4.2,4.2-11,0-15.2l-31.4-31.4c-4.2-4.2-11-4.2-15.2,0l-60,60L344.2,331z" fill="#62B446"/><polygon fill="#E0CAA9" points="463.1,168.6 414.1,217.5 411,214.4 463,162.5  "/><circle cx="342.3" cy="290.5" fill="#FFFFFF" r="10.2"/><circle cx="351.9" cy="256.1" fill="#FFFFFF" r="10.6"/><circle cx="382" cy="262.8" fill="#FFFFFF" r="6.2"/><g><polygon fill="#E5E5E5" points="200.5,229.6 217.1,246.1 147.1,316.1 105.6,357.6 118.3,391.8 123.5,399 143.3,395.4 184.9,353.9     222.4,316.3 254.8,283.9 271.2,300.3 294.3,277.2 223.6,206.5   "/><path d="M334.8,203.9c9.2-9.2,9.2-24.2,0-33.4l-4.4-4.4c-9.2-9.2-24.2-9.2-33.4,0l-40.7,40.7l-3.7,3.7l-14-14    c-1.4-1.4-3.7-1.4-5.2,0l-6.9,6.9l70.7,70.7l6.9-6.9c1.4-1.4,1.4-3.7,0-5.2l-13.8-13.8l3.7-3.7L334.8,203.9z" fill="#E5E5E5"/></g><rect fill="#E0CAA9" height="53.4" transform="matrix(0.7071 -0.7071 0.7071 0.7071 -148.757 225.4983)" width="99" x="148.3" y="265.6"/><g><defs><circle cx="256" cy="296.8" id="SVGID_1_" r="167.3"/></defs><clipPath id="SVGID_2_"><use overflow="visible" xlink:href="#SVGID_1_"/></clipPath><polygon clip-path="url(#SVGID_2_)" fill="#F06A46" points="219.3,308.6 140.2,387.7 117.2,391.9 98,372.6 102.4,349.9     143.9,308.4   "/></g><path d="M216.3,253.5c3,3,3,7.9,0,11l-92.4,92.4c-3,3-7.9,3-11,0l0,0c-3-3-3-7.9,0-11l92.4-92.4   C208.4,250.5,213.3,250.5,216.3,253.5L216.3,253.5z" fill="#F8FCFA" opacity="0.5"/><circle cx="121.2" cy="382.3" fill="#F8FCFA" r="5.6"/><circle cx="152.9" cy="347" fill="#F8FCFA" r="5.8"/><circle cx="161.8" cy="315.2" fill="#F8FCFA" r="8.7"/><rect fill="#010101" height="100" transform="matrix(0.7071 -0.7071 0.7071 0.7071 -102.1942 244.6631)" width="32.6" x="227.9" y="195.7"/><path d="M221.2,212.3c1.4,1.4,1.4,3.7,0,5.1l-14.1,14.1l-5.1-5.1l14.1-14.1C217.5,210.9,219.8,210.9,221.2,212.3   L221.2,212.3z" fill="#8A7F8D"/><path d="M232.5,223.6c1.4,1.4,1.4,3.7,0,5.1l-14.1,14.1l-5.1-5.1l14.1-14.1C228.8,222.2,231,222.2,232.5,223.6   L232.5,223.6z" fill="#8A7F8D"/><path d="M243.6,234.7c1.4,1.4,1.4,3.7,0,5.1l-14.1,14.1l-5.1-5.1l14.1-14.1C239.9,233.3,242.2,233.3,243.6,234.7   L243.6,234.7z" fill="#8A7F8D"/><path d="M254.9,246c1.4,1.4,1.4,3.7,0,5.1l-14.1,14.1l-5.1-5.1l14.1-14.1C251.2,244.6,253.5,244.6,254.9,246   L254.9,246z" fill="#8A7F8D"/><path d="M266.1,257.2c1.4,1.4,1.4,3.7,0,5.1l-14.1,14.1l-5.1-5.1l14.1-14.1C262.4,255.8,264.7,255.8,266.1,257.2   L266.1,257.2z" fill="#8A7F8D"/><path d="M277.3,268.4c1.4,1.4,1.4,3.7,0,5.1l-14.1,14.1l-5.1-5.1l14.1-14.1C273.6,267,275.9,267,277.3,268.4   L277.3,268.4z" fill="#8A7F8D"/><rect fill="#2F294C" height="53.4" transform="matrix(0.7071 -0.7071 0.7071 0.7071 -76.2831 255.518)" width="5.2" x="267.7" y="193.1"/><path d="M331.7,162.8c9.2,9.2,9.2,24.2,0,33.4L291,236.9l-37.8-37.8l40.7-40.7c9.2-9.2,24.2-9.2,33.4,0L331.7,162.8   z" fill="#595074"/><path d="M308.1,161.7c3.1,3.1,3.1,8.1,0,11.1l-40.5,40.5l-11.1-11.1l40.5-40.5   C300,158.7,305,158.7,308.1,161.7L308.1,161.7z" fill="#FFFFFF" opacity="0.5"/><path d="M294.3,266.4l6.9-6.9c1.4-1.4,1.4-3.7,0-5.2l-65.5-65.5c-1.4-1.4-3.7-1.4-5.2,0l-6.9,6.9L294.3,266.4z" fill="#010101"/></g></svg>