<?xml version="1.0" encoding="utf-8"?>
<!-- Generator: Adobe Illustrator 17.0.0, SVG Export Plug-In . SVG Version: 6.00 Build 0)  -->
<!DOCTYPE svg PUBLIC "-//W3C//DTD SVG 1.1//EN" "http://www.w3.org/Graphics/SVG/1.1/DTD/svg11.dtd">
<svg version="1.1" id="Layer_2" xmlns="http://www.w3.org/2000/svg" xmlns:xlink="http://www.w3.org/1999/xlink" x="0px" y="0px"
	 width="595.28px" height="841.89px" viewBox="0 0 595.28 841.89" enable-background="new 0 0 595.28 841.89" xml:space="preserve">
<g>
	<circle fill="#60ADE0" cx="297.756" cy="468.963" r="194.396"/>
	<g>
		<g>
			<defs>
				<circle id="SVGID_1_" cx="297.756" cy="468.963" r="194.396"/>
			</defs>
			<clipPath id="SVGID_2_">
				<use xlink:href="#SVGID_1_"  overflow="visible"/>
			</clipPath>
			<g clip-path="url(#SVGID_2_)">
				<path fill="#E5E5E5" d="M442.158,563.835c-3.604-41.507-19.068-76.038-45.692-102.779
					c-27.09-27.206-58.598-38.949-80.107-44.065c-41.972-9.883-87.781-26.857-110.104-78.13
					c-20.114-46.157-17.44-99.058-17.44-99.64c0.465-8.139-5.813-15.231-13.952-15.696c-8.139-0.465-15.231,5.813-15.696,13.952
					c-0.116,2.442-3.255,60.342,19.765,113.126c17.44,40.112,46.39,63.132,76.968,77.317c-15.58,7.092-32.322,17.556-47.669,32.903
					c-26.741,26.741-42.088,61.388-45.692,102.779v0.581c-3.372,69.294-3.488,77.898-3.488,78.596
					c0,8.139,6.627,14.882,14.882,14.882s14.882-6.627,14.882-14.766c0,0,0,0,0-0.116h158.121c5.465,0,9.883-4.418,9.883-9.883
					c0-5.465-4.418-9.883-9.883-9.883H189.28c0.233-5.116,0.465-11.627,0.93-19.765h190.094c5.465,0,9.883-4.418,9.883-9.883
					s-4.418-9.883-9.883-9.883H191.141c0.233-5.348,0.581-11.161,0.814-17.44h189.513c5.465,0,9.883-4.418,9.883-9.883
					c0-5.464-4.418-9.883-9.883-9.883h-186.49c1.395-6.627,3.139-12.789,5.232-18.602h163.818c5.465,0,9.883-4.418,9.883-9.883
					c0-5.465-4.418-9.883-9.883-9.883h-154.75c3.139-5.465,6.511-10.464,10.115-15.115H325.66c5.465,0,9.883-4.418,9.883-9.883
					c0-5.465-4.418-9.883-9.883-9.883h-86.734c21.742-17.672,45.111-24.881,56.156-27.439c1.86-0.465,3.604-1.279,5.116-2.325
					c3.139,0.814,6.162,1.511,9.185,2.325c22.09,5.232,94.989,29.299,103.128,120.335c3.372,67.667,3.488,76.619,3.488,76.852
					c0,8.139,6.627,14.882,14.882,14.882s14.882-6.627,14.882-14.882c0-0.698-0.116-9.301-3.488-78.596L442.158,563.835z"/>
				<path fill="#E5E5E5" d="M220.44,312.818h187.071c-1.628,6.162-3.604,12.44-5.93,18.603H237.879
					c-5.464,0-9.883,4.418-9.883,9.883s4.418,9.883,9.883,9.883h154.517c-3.023,5.348-6.511,10.464-10.231,15.115H276.247
					c-5.464,0-9.883,4.418-9.883,9.883s4.418,9.883,9.883,9.883h88.246c-2.093,5.116-1.395,11.045,2.558,15.463
					c2.907,3.372,7.092,5.116,11.162,5.116c3.488,0,6.976-1.163,9.766-3.72c16.161-14.068,28.834-31.624,37.786-52.203
					c23.021-52.785,19.998-110.685,19.765-113.126c-0.465-8.139-7.441-14.417-15.696-13.952
					c-8.139,0.465-14.417,7.441-13.952,15.696c0,0.233,0.349,6.511,0,16.626H243.693c-5.464,0-9.883,4.418-9.883,9.883
					c0,5.465,4.418,9.883,9.883,9.883h170.678c-0.581,5.464-1.395,11.278-2.442,17.44H220.44c-5.464,0-9.883,4.418-9.883,9.883
					S214.975,312.818,220.44,312.818z"/>
			</g>
		</g>
	</g>
	<g>
		<path fill="#4A5055" d="M411.115,626.851c-0.349-9.301-1.163-28.718-3.139-68.945c-8.139-91.036-80.921-115.103-103.128-120.335
			c-46.157-10.813-102.779-31.508-130.566-95.105c-23.021-52.785-19.998-110.685-19.765-113.126
			c0.465-8.139,7.557-14.417,15.696-13.952c8.139,0.465,14.417,7.441,13.952,15.696l0,0c0,0.581-2.79,53.482,17.44,99.64
			c22.323,51.273,68.248,68.248,110.104,78.13c21.625,5.116,53.017,16.859,80.107,44.065
			c26.741,26.741,42.088,61.388,45.692,102.779v0.581c0.93,19.649,1.628,34.415,2.209,45.46
			C427.044,614.876,418.556,621.271,411.115,626.851z"/>
		<path fill="#CC9900" d="M388.443,377.927H271.597c-5.464,0-9.883-4.418-9.883-9.883c0-5.465,4.418-9.883,9.883-9.883H388.56
			c5.465,0,9.883,4.418,9.883,9.883C398.442,373.509,393.908,377.927,388.443,377.927z"/>
		<path fill="#CC9900" d="M398.907,343.047H233.229c-5.464,0-9.883-4.418-9.883-9.883s4.418-9.883,9.883-9.883h165.795
			c5.465,0,9.883,4.418,9.883,9.883S404.372,343.047,398.907,343.047z"/>
		<path fill="#CC9900" d="M419.835,304.679H215.789c-5.464,0-9.883-4.418-9.883-9.883c0-5.464,4.418-9.883,9.883-9.883h204.162
			c5.465,0,9.883,4.418,9.883,9.883C429.834,300.261,425.3,304.679,419.835,304.679z"/>
		<path fill="#CC9900" d="M419.835,267.474H239.042c-5.464,0-9.883-4.418-9.883-9.883s4.418-9.883,9.883-9.883h180.909
			c5.465,0,9.883,4.418,9.883,9.883S425.3,267.474,419.835,267.474z"/>
		<path fill="#CC9900" d="M321.009,484.891H204.162c-5.464,0-9.883-4.418-9.883-9.883c0-5.464,4.418-9.883,9.883-9.883h116.963
			c5.465,0,9.883,4.418,9.883,9.883C331.008,480.473,326.474,484.891,321.009,484.891z"/>
		<path fill="#CC9900" d="M359.377,519.771H193.699c-5.464,0-9.883-4.418-9.883-9.883s4.418-9.883,9.883-9.883h165.795
			c5.465,0,9.883,4.418,9.883,9.883S364.842,519.771,359.377,519.771z"/>
		<path fill="#CC9900" d="M341.937,634.874H196.373c0,0-10.464-6.395-16.045-11.161c-5.93-5.116-6.976-8.604-4.069-8.604h165.795
			c5.465,0,9.883,4.418,9.883,9.883C351.936,630.456,347.402,634.874,341.937,634.874z"/>
		<path fill="#CC9900" d="M376.817,558.138H172.771c-5.464,0-9.883-4.418-9.883-9.883c0-5.464,4.418-9.883,9.883-9.883h204.162
			c5.464,0,9.883,4.418,9.883,9.883C386.816,553.72,382.281,558.138,376.817,558.138z"/>
		<path fill="#CC9900" d="M375.654,595.343H172.771c-5.464,0-9.883-4.418-9.883-9.883s4.418-9.883,9.883-9.883h203
			c5.465,0,9.883,4.418,9.883,9.883S381.119,595.343,375.654,595.343z"/>
		<path fill="#4A5055" d="M155.563,601.622c0.465-11.045,1.163-25.811,2.209-45.344v-0.581
			c3.604-41.507,19.068-76.038,45.692-102.779c27.09-27.206,58.598-38.949,80.107-44.065c8.022-1.86,15.928,3.023,17.789,11.045
			c1.86,8.022-3.023,15.928-11.045,17.789c-22.09,5.232-94.989,29.299-103.128,120.335c-1.86,38.833-2.79,59.063-3.139,68.713
			C177.538,622.433,166.376,612.783,155.563,601.622z"/>
		<path fill="#4A5055" d="M373.445,398.506c-4.069,0-8.255-1.744-11.161-5.116c-5.348-6.162-4.767-15.58,1.395-20.928
			c13.022-11.394,22.788-24.997,30.113-41.739c20.114-46.157,17.44-99.058,17.44-99.64c-0.465-8.139,5.813-15.231,13.952-15.696
			c8.139-0.465,15.231,5.813,15.696,13.952c0.116,2.442,3.255,60.342-19.765,113.126c-8.952,20.579-21.625,38.135-37.786,52.203
			C380.421,397.343,376.933,398.506,373.445,398.506z"/>
	</g>
	<path fill="#FFFFFF" d="M166.492,291.193c-0.814,0-1.511-0.581-1.628-1.395c0-0.116-2.442-13.603-3.604-27.322
		c-1.279-13.952-1.046-31.857-1.046-31.973c0-0.93,0.814-1.628,1.628-1.628c0.93,0,1.628,0.814,1.628,1.628
		c0,0.233-0.233,17.905,1.046,31.624c1.163,13.603,3.604,26.857,3.604,26.974c0.116,0.93-0.465,1.744-1.279,1.86
		C166.725,291.193,166.609,291.193,166.492,291.193z"/>
	<path fill="#FFFFFF" d="M417.975,243.524C417.975,243.524,417.859,243.524,417.975,243.524c-1.046,0-1.744-0.814-1.628-1.744
		c0.233-5.116,0-11.161,0-11.161c0-0.93,0.698-1.628,1.511-1.744c0.93,0,1.628,0.698,1.744,1.511c0,0.233,0.349,6.278,0,11.51
		C419.603,242.826,418.789,243.524,417.975,243.524z"/>
</g>
</svg>
