<?xml version="1.0" encoding="utf-8"?>
<!-- Generator: Adobe Illustrator 17.0.0, SVG Export Plug-In . SVG Version: 6.00 Build 0)  -->
<!DOCTYPE svg PUBLIC "-//W3C//DTD SVG 1.1//EN" "http://www.w3.org/Graphics/SVG/1.1/DTD/svg11.dtd">
<svg version="1.1" id="Layer_12" xmlns="http://www.w3.org/2000/svg" xmlns:xlink="http://www.w3.org/1999/xlink" x="0px" y="0px"
	 width="595.28px" height="841.89px" viewBox="0 0 595.28 841.89" enable-background="new 0 0 595.28 841.89" xml:space="preserve">
<g>
	<circle fill="#60ADE0" cx="297.64" cy="468.381" r="194.512"/>
	<circle fill="#EFEEEE" cx="275.433" cy="532.56" r="116.614"/>
	<path fill="#CC9900" d="M307.755,511.051c0,0-42.902,4.651-71.038-1.86c-28.136-6.511-32.903-10.929-41.507-9.185
		c-8.487,1.744-12.208,10.58-12.208,10.58s5.116,21.858,47.436,21.858S307.755,511.051,307.755,511.051z"/>
	<rect x="239.972" y="322.119" fill="#EFEEEE" width="70.806" height="104.174"/>
	<path fill="#EFEEEE" d="M320.777,310.958c0,6.162-4.999,11.162-11.161,11.162h-69.759c-6.162,0-11.162-4.999-11.162-11.162l0,0
		c0-6.162,4.999-11.161,11.162-11.161h69.759C315.777,299.796,320.777,304.679,320.777,310.958L320.777,310.958z"/>
	<g>
		<path fill="#FFCC66" d="M281.479,359.44c5.348,0,9.766,4.418,9.766,9.766c0,5.348-4.418,9.766-9.766,9.766
			s-9.766-4.418-9.766-9.766C271.713,363.859,276.015,359.44,281.479,359.44 M281.479,353.627c-8.604,0-15.58,6.976-15.58,15.58
			c0,8.604,6.976,15.58,15.58,15.58c8.604,0,15.58-6.976,15.58-15.58C297.059,360.603,290.083,353.627,281.479,353.627
			L281.479,353.627z"/>
	</g>
	<g>
		<path fill="#FFCC66" d="M262.76,439.082c3.255,0,5.93,2.674,5.93,5.93s-2.674,5.93-5.93,5.93c-3.255,0-5.93-2.674-5.93-5.93
			C256.831,441.64,259.505,439.082,262.76,439.082 M262.76,434.432c-5.813,0-10.58,4.767-10.58,10.58
			c0,5.813,4.767,10.58,10.58,10.58c5.813,0,10.58-4.767,10.58-10.58C273.341,439.082,268.574,434.432,262.76,434.432
			L262.76,434.432z"/>
	</g>
	<circle fill="#FFCC66" cx="268.225" cy="286.077" r="8.836"/>
	<circle fill="#FFCC66" cx="303.686" cy="265.614" r="12.557"/>
	<path fill="#FFCC66" d="M330.659,499.889c-30.927,7.208-52.087,29.066-95.687,29.066c-32.438,0-46.739-12.092-51.971-18.37
		c-1.628,6.976-2.558,14.417-2.558,21.858c0,52.436,42.553,94.989,94.989,94.989s94.989-42.553,94.989-94.989
		c0-12.44-2.442-24.416-6.743-35.228C356.819,496.285,346.239,496.285,330.659,499.889z"/>
	<path opacity="0.7" fill="#FFFFFF" enable-background="new    " d="M341.24,578.02c0,4.418-3.604,8.139-8.139,8.139h-60.342
		c-4.418,0-8.139-3.604-8.139-8.139l0,0c0-4.418,3.604-8.139,8.139-8.139h60.342C337.635,569.881,341.24,573.486,341.24,578.02
		L341.24,578.02z"/>
	<path opacity="0.7" fill="#FFFFFF" enable-background="new    " d="M341.24,543.954c0,4.418-3.604,8.139-8.139,8.139h-60.342
		c-4.418,0-8.139-3.604-8.139-8.139l0,0c0-4.418,3.604-8.139,8.139-8.139h60.342C337.635,535.932,341.24,539.536,341.24,543.954
		L341.24,543.954z"/>
	<path opacity="0.7" fill="#FFFFFF" enable-background="new    " d="M341.24,510.004c0,4.418-3.604,8.139-8.139,8.139h-60.342
		c-4.418,0-8.139-3.604-8.139-8.139l0,0c0-4.418,3.604-8.139,8.139-8.139h60.342C337.635,501.866,341.24,505.47,341.24,510.004
		L341.24,510.004z"/>
	<path opacity="0.7" fill="#FFFFFF" enable-background="new    " d="M341.24,475.939c0,4.418-3.604,8.139-8.139,8.139h-60.342
		c-4.418,0-8.139-3.604-8.139-8.139l0,0c0-4.418,3.604-8.139,8.139-8.139h60.342C337.635,467.8,341.24,471.521,341.24,475.939
		L341.24,475.939z"/>
	<polygon fill="#D1D2D3" points="254.157,322.119 310.894,343.861 310.662,322.119 	"/>
	<path fill="#E5E5E5" d="M58.017,287.472c-5.581-46.157,27.322-88.129,73.48-93.71s88.129,27.322,93.71,73.48
		c2.79,22.788-3.953,44.646-16.859,61.505l0,0c-10.929,15.463-2.79,41.507-2.79,41.507s-21.16-9.766-28.834-11.394
		c-7.674-1.628-17.324,4.883-40.809,2.442c0,0,0,0-0.116,0C96.268,358.743,62.9,328.281,58.017,287.472z"/>
	<circle fill="#FFCC66" cx="143.007" cy="269.102" r="85.455"/>
	<path fill="#FFCC66" d="M171.143,347c0,0,34.182,15.928,35.461,16.393c1.511,0.581,2.325,0.233,1.744-3.72
		c-0.581-3.953-4.302-35.926-4.302-35.926L171.143,347z"/>
	<polygon opacity="0.2" fill="#231F20" enable-background="new    " points="312.638,642.315 302.988,645.803 292.176,647.896 
		368.911,541.047 368.678,462.568 378.793,477.915 379.026,552.093 	"/>
	<path opacity="0.7" fill="#FFFFFF" enable-background="new    " d="M190.327,538.838c5.813-59.412,53.831-104.872,109.987-106.616
		c-6.627-1.163-13.603-1.744-20.579-1.744c-61.272,0-110.917,44.414-110.917,99.175c0,26.857,11.859,51.157,31.275,69.062
		C191.955,580.81,188.234,560.231,190.327,538.838z"/>
	<rect x="376.003" y="424.549" fill="#EFEEEE" width="55.808" height="116.963"/>
	<path fill="#EFEEEE" d="M439.833,415.946c0,4.767-3.837,8.604-8.604,8.604h-53.947c-4.767,0-8.604-3.837-8.604-8.604l0,0
		c0-4.767,3.837-8.604,8.604-8.604h53.947C435.88,407.342,439.833,411.179,439.833,415.946L439.833,415.946z"/>
	<g>
		<g>
			<defs>
				<circle id="SVGID_1_" cx="297.64" cy="468.381" r="194.512"/>
			</defs>
			<clipPath id="SVGID_2_">
				<use xlink:href="#SVGID_1_"  overflow="visible"/>
			</clipPath>
			<path clip-path="url(#SVGID_2_)" fill="#EFEEEE" d="M506.802,647.779l-74.991-106.267h-55.807l-74.061,106.267
				c-2.325,2.442-3.721,5.813-3.721,9.418c0,7.557,6.162,13.719,13.719,13.719h183.351V670.8c0.465,0,1.046,0.116,1.511,0.116
				c7.557,0,13.719-6.162,13.719-13.719C510.522,653.476,509.011,650.221,506.802,647.779z"/>
		</g>
	</g>
	<g>
		<path fill="#FFCC66" d="M399.372,569.067c3.255,0,5.93,2.674,5.93,5.93c0,3.255-2.674,5.93-5.93,5.93
			c-3.255,0-5.93-2.674-5.93-5.93C393.443,571.742,396.117,569.067,399.372,569.067 M399.372,563.254
			c-6.511,0-11.743,5.232-11.743,11.743c0,6.511,5.232,11.743,11.743,11.743c6.511,0,11.743-5.232,11.743-11.743
			C411.115,568.486,405.883,563.254,399.372,563.254L399.372,563.254z"/>
	</g>
	<g>
		<path fill="#FFCC66" d="M395.187,487.333c1.163,0,2.093,0.93,2.093,2.093s-0.93,2.093-2.093,2.093
			c-1.163,0-2.093-0.93-2.093-2.093S394.024,487.333,395.187,487.333 M395.187,481.519c-4.302,0-7.906,3.488-7.906,7.906
			c0,4.302,3.488,7.906,7.906,7.906c4.302,0,7.906-3.488,7.906-7.906C403.093,485.124,399.489,481.519,395.187,481.519
			L395.187,481.519z"/>
	</g>
	<path fill="#CC9900" d="M419.254,604.412c0,0-11.045,2.907-27.322-0.93s-18.486-6.627-23.369-6.627
		c-4.883,0-8.371,5.813-8.371,5.813s6.86,12.324,27.671,12.324C408.557,614.992,419.254,604.412,419.254,604.412z"/>
	<g>
		<path fill="#FFCC66" d="M416.696,360.022c3.953,0,7.208,3.255,7.208,7.208s-3.255,7.208-7.208,7.208s-7.208-3.255-7.208-7.208
			S412.743,360.022,416.696,360.022 M416.696,354.209c-7.208,0-13.022,5.813-13.022,13.022s5.813,13.022,13.022,13.022
			s13.022-5.813,13.022-13.022S423.905,354.209,416.696,354.209L416.696,354.209z"/>
	</g>
	<g>
		<g>
			<defs>
				<circle id="SVGID_3_" cx="297.64" cy="468.381" r="194.512"/>
			</defs>
			<clipPath id="SVGID_4_">
				<use xlink:href="#SVGID_3_"  overflow="visible"/>
			</clipPath>
			<path clip-path="url(#SVGID_4_)" fill="#FFCC66" d="M477.154,647.082L477.154,647.082L477.154,647.082
				c-0.349-0.698-0.814-1.279-1.279-1.86l-34.763-49.529c0,0-9.301,1.279-21.277,6.162c-11.975,4.767-14.301,10.348-31.392,10.348
				s-27.904-10.348-27.904-10.348l-30.345,43.367c-0.465,0.581-0.93,1.163-1.279,1.86l0,0l0,0c-0.581,1.163-0.93,2.558-0.93,3.953
				c0,4.767,3.837,8.72,8.72,8.72h132.892c4.767,0,8.72-3.837,8.72-8.72C478.201,649.64,477.852,648.244,477.154,647.082z"/>
		</g>
	</g>
	<path opacity="0.7" fill="#FFFFFF" enable-background="new    " d="M377.747,554.767c0,0-59.877,87.897-63.016,92.78
		c-3.139,4.999-10.929,15.58,2.79,15.58c13.836,0,58.598,0,58.598,0s-23.486-6.395-23.486-36.275
		C352.517,596.855,377.747,554.767,377.747,554.767z"/>
	<path opacity="0.7" fill="#FFFFFF" enable-background="new    " d="M465.411,604.412c0,3.139-2.558,5.813-5.813,5.813h-46.39
		c-3.139,0-5.813-2.558-5.813-5.813l0,0c0-3.139,2.558-5.813,5.813-5.813h46.39C462.853,598.599,465.411,601.273,465.411,604.412
		L465.411,604.412z"/>
	<path opacity="0.7" fill="#FFFFFF" enable-background="new    " d="M461.458,583.601h-48.25c-3.139,0-5.813-2.558-5.813-5.813l0,0
		c0-3.139,2.558-5.813,5.813-5.813h40.112L461.458,583.601z"/>
	<path opacity="0.7" fill="#FFFFFF" enable-background="new    " d="M442.74,556.976h-29.531c-3.139,0-5.813-2.558-5.813-5.813l0,0
		c0-3.139,2.558-5.813,5.813-5.813h21.393L442.74,556.976z"/>
	<path opacity="0.7" fill="#FFFFFF" enable-background="new    " d="M431.811,529.421h-18.603c-3.139,0-5.813-2.558-5.813-5.813l0,0
		c0-3.139,2.558-5.813,5.813-5.813h18.603V529.421z"/>
	<path opacity="0.7" fill="#FFFFFF" enable-background="new    " d="M431.811,503.842h-18.603c-3.139,0-5.813-2.558-5.813-5.813l0,0
		c0-3.139,2.558-5.813,5.813-5.813h18.603V503.842z"/>
	<path opacity="0.7" fill="#FFFFFF" enable-background="new    " d="M431.811,478.38h-18.603c-3.139,0-5.813-2.558-5.813-5.813l0,0
		c0-3.139,2.558-5.813,5.813-5.813h18.603V478.38z"/>
	<path opacity="0.7" fill="#FFFFFF" enable-background="new    " d="M431.811,452.802h-18.603c-3.139,0-5.813-2.558-5.813-5.813l0,0
		c0-3.139,2.558-5.813,5.813-5.813h18.603V452.802z"/>
	<polygon fill="#D1D2D3" points="387.281,424.549 431.811,441.292 431.811,424.549 	"/>
	
		<rect x="93.963" y="266.394" transform="matrix(-0.8279 0.5609 -0.5609 -0.8279 415.5991 414.2137)" fill="#FFFFFF" width="100.571" height="8.953"/>
	
		<rect x="87.945" y="265.28" transform="matrix(-0.8279 0.5609 -0.5609 -0.8279 357.9633 429.6712)" fill="#FFFFFF" width="50.227" height="8.953"/>
	
		<rect x="129.315" y="281.801" transform="matrix(-0.8279 0.5609 -0.5609 -0.8279 442.8495 436.666)" fill="#FFFFFF" width="50.227" height="8.953"/>
	
		<rect x="138.734" y="234.309" transform="matrix(-0.8279 0.5609 -0.5609 -0.8279 424.3958 347.3445)" fill="#FFFFFF" width="40.345" height="8.953"/>
</g>
</svg>
